<svg width="1440" height="330" viewBox="0 0 1440 330" fill="none" xmlns="http://www.w3.org/2000/svg">
<path d="M1517.5 329.1H-199.447L-143.408 288.806C-114.757 268.205 -71.8094 237.326 -21.709 211.595C28.3956 185.862 85.6131 165.3 142.8 165.3C199.997 165.3 257.213 185.864 314.531 206.471C371.812 227.064 429.197 247.7 486.6 247.7C544.006 247.7 601.389 227.063 658.682 204.76C716.008 182.444 773.238 158.464 830.459 151.649L830.464 151.648C887.674 144.321 944.896 154.796 1002.21 165.292C1059.49 175.782 1116.87 186.292 1174.26 178.943L1174.26 178.944C1231.65 172.11 1289.01 148.065 1339.18 120.595C1389.35 93.1224 1432.34 62.2051 1460.99 41.6055L1517.5 0.975586V329.1Z" fill="#4581F6" stroke="black"/>
</svg>
