<svg width="100" height="100" viewBox="0 0 100 100" fill="none" xmlns="http://www.w3.org/2000/svg">
    <path d="M83.3333 19.7917C82.0833 25.625 68.125 83.3333 68.125 83.3333C67.0833 87.5 64.7917 88.3333 61.25 86.25L42.7083 72.2917L33.5417 83.3333C33.5417 83.3333 32.75 84.1667 31.6667 83.9583C30.5833 83.75 30.4167 82.5 30.4167 82.5L33.125 63.9583L72.5 26.6667C74.1667 25 72.5 24.375 70.4167 25.8333L23.3333 54.7917L5.83333 49.375C5.83333 49.375 2.08333 48.125 2.5 45.8333C2.91667 43.5417 6.25 42.2917 6.25 42.2917L79.5833 17.5C79.5833 17.5 83.3333 16.0417 83.3333 19.7917Z" fill="white"/>
</svg>
